<?xml version="1.0" standalone="no"?>
<!DOCTYPE svg PUBLIC "-//W3C//DTD SVG 20010904//EN"
 "http://www.w3.org/TR/2001/REC-SVG-20010904/DTD/svg10.dtd">
<svg version="1.0" xmlns="http://www.w3.org/2000/svg"
 width="1024.000000pt" height="1024.000000pt" viewBox="0 0 1024.000000 1024.000000"
 preserveAspectRatio="xMidYMid meet">

<g transform="translate(0.000000,1024.000000) scale(0.100000,-0.100000)"
fill="#000000" stroke="none">
<path d="M0 5120 l0 -5120 5120 0 5120 0 0 5120 0 5120 -5120 0 -5120 0 0
-5120z m5012 1508 c10 -40 34 -106 53 -147 137 -287 376 -477 695 -552 81 -19
319 -16 400 5 36 10 79 21 95 25 49 13 176 75 235 116 l55 37 68 -73 c70 -77
101 -116 163 -209 21 -30 49 -73 64 -95 15 -22 50 -89 79 -150 29 -60 57 -118
62 -128 14 -26 74 -214 92 -287 8 -36 21 -101 27 -145 6 -44 15 -108 21 -141
5 -34 9 -102 9 -151 l0 -90 -92 -2 c-50 -1 -94 -4 -98 -6 -13 -8 -26 11 -44
65 -57 165 -142 334 -251 500 -46 69 -94 137 -107 152 -25 29 -39 33 -318 87
-30 6 -97 20 -149 31 -52 11 -96 18 -98 16 -2 -2 31 -49 74 -104 177 -228 303
-515 348 -797 3 -22 9 -50 12 -62 4 -19 -5 -26 -69 -56 -40 -18 -106 -52 -145
-75 -40 -22 -74 -38 -77 -34 -2 4 -13 46 -25 93 -73 309 -232 637 -449 928
-31 42 -106 127 -167 190 -404 416 -894 700 -1409 816 l-29 6 37 26 c37 24
249 133 260 133 4 0 25 9 49 19 83 38 349 111 408 112 19 0 43 4 54 9 11 5 49
9 85 9 l65 1 17 -72z m-1232 -437 c0 -5 -7 -12 -16 -15 -14 -5 -15 -4 -4 9 14
17 20 19 20 6z m2691 -8 c13 -16 12 -17 -3 -4 -10 7 -18 15 -18 17 0 8 8 3 21
-13z m-3041 -443 c0 -53 75 -291 131 -417 10 -24 19 -45 19 -48 0 -11 97 -202
140 -275 189 -324 463 -645 713 -833 298 -225 626 -380 965 -457 28 -7 54 -15
57 -19 2 -4 -6 -23 -19 -42 -13 -19 -47 -83 -76 -143 -46 -95 -55 -107 -73
-103 -12 3 -40 8 -62 12 -287 45 -584 177 -818 364 -43 35 -80 61 -82 59 -4
-3 48 -270 90 -463 8 -38 15 -73 15 -77 0 -10 165 -128 255 -183 75 -45 248
-135 260 -135 5 0 85 -34 115 -49 8 -4 36 -14 63 -22 l47 -13 0 -71 c0 -38 -3
-87 -7 -108 l-6 -38 -116 5 c-168 7 -356 33 -430 60 -24 9 -53 16 -65 16 -11
0 -45 11 -74 25 -30 14 -60 25 -68 25 -8 0 -47 15 -87 34 -39 18 -83 38 -97
45 -23 10 -88 48 -217 125 -26 16 -61 41 -78 56 -16 15 -46 37 -65 50 -64 43
-244 221 -299 296 -15 22 -35 45 -45 53 -10 8 -24 28 -33 45 -9 17 -33 54 -55
82 -21 28 -38 55 -38 60 0 5 -16 33 -35 61 -19 29 -35 58 -35 64 0 7 -12 32
-26 56 -14 24 -33 67 -43 96 -10 29 -26 70 -34 92 -38 98 -73 242 -98 407 -15
101 -17 392 -2 498 21 151 33 222 40 233 4 6 10 29 14 52 15 86 92 283 165
420 63 120 94 155 94 105z m1405 -305 c151 -50 254 -205 243 -366 -10 -130
-93 -251 -211 -305 -53 -25 -75 -29 -152 -29 -80 0 -97 3 -150 29 -73 36 -142
104 -175 171 -22 44 -25 63 -25 160 0 128 14 166 94 248 101 106 235 139 376
92z"/>
</g>
</svg>
